<?xml version="1.0" encoding="UTF-8" standalone="no"?>
<svg
   xmlns:dc="http://purl.org/dc/elements/1.1/"
   xmlns:cc="http://creativecommons.org/ns#"
   xmlns:rdf="http://www.w3.org/1999/02/22-rdf-syntax-ns#"
   xmlns:svg="http://www.w3.org/2000/svg"
   xmlns="http://www.w3.org/2000/svg"
   xmlns:sodipodi="http://sodipodi.sourceforge.net/DTD/sodipodi-0.dtd"
   xmlns:inkscape="http://www.inkscape.org/namespaces/inkscape"
   width="210mm"
   height="297mm"
   viewBox="0 0 210 297"
   version="1.1"
   id="svg8"
   inkscape:version="1.0.2 (e86c8708, 2021-01-15)"
   sodipodi:docname="drawing.svg">
  <defs
     id="defs2" />
  <sodipodi:namedview
     id="base"
     pagecolor="#8c8c8c"
     bordercolor="#666666"
     borderopacity="1.0"
     inkscape:pageopacity="0"
     inkscape:pageshadow="2"
     inkscape:zoom="0.24748737"
     inkscape:cx="1708.0575"
     inkscape:cy="2400.0413"
     inkscape:document-units="mm"
     inkscape:current-layer="layer1"
     inkscape:document-rotation="0"
     showgrid="false"
     inkscape:window-width="1920"
     inkscape:window-height="964"
     inkscape:window-x="0"
     inkscape:window-y="25"
     inkscape:window-maximized="1"
     inkscape:snap-bbox="false"
     inkscape:snap-global="false" />
  <metadata
     id="metadata5">
    <rdf:RDF>
      <cc:Work
         rdf:about="">
        <dc:format>image/svg+xml</dc:format>
        <dc:type
           rdf:resource="http://purl.org/dc/dcmitype/StillImage" />
        <dc:title></dc:title>
      </cc:Work>
    </rdf:RDF>
  </metadata>
  <g
     inkscape:label="Layer 1"
     inkscape:groupmode="layer"
     id="layer1">
    <circle
       style="fill:none;stroke:#ffffff;stroke-width:5.00000014;stroke-linejoin:round;stroke-miterlimit:4;stroke-dasharray:10.00000028,5.00000014;stroke-dashoffset:8.50000024;paint-order:fill markers stroke"
       id="path857"
       sodipodi:type="arc"
       sodipodi:cx="460.36069"
       sodipodi:cy="120.19968"
       sodipodi:rx="140.14711"
       sodipodi:ry="140.14711"
       sodipodi:start="0"
       sodipodi:end="6.100589"
       sodipodi:open="true"
       sodipodi:arc-type="chord"
       d="M 600.5078,120.19968 A 140.14711,140.14711 0 0 1 466.75605,260.20079 140.14711,140.14711 0 0 1 320.79726,132.97708 140.14711,140.14711 0 0 1 441.22786,-18.635289 140.14711,140.14711 0 0 1 598.17793,94.751298 Z"
       inkscape:export-xdpi="93"
       inkscape:export-ydpi="93" />
    <path
       id="path889"
       style="fill:#ffffff;stroke:#000000;stroke-width:1.79034;stroke-linejoin:round;stroke-miterlimit:4;stroke-dasharray:none;stroke-dashoffset:32.126;paint-order:fill markers stroke"
       d="m 320.10999,314.22642 a 6.2844187,8.2887003 56.424051 0 0 -0.89904,0.66747 6.2844187,8.2887003 56.424051 0 0 -2.17434,9.60337 6.2844187,8.2887003 56.424051 0 0 10.34726,-0.021 6.2844187,8.2887003 56.424051 0 0 3.1187,-9.60535 l -0.74611,-0.87454 a 6.2844187,8.2887003 56.424051 0 0 -9.64647,0.23003 z m 1.47944,2.26801 a 3.5762372,4.8064461 56.424051 0 1 5.58566,-0.19481 l 0.42574,0.49672 a 3.5762372,4.8064461 56.424051 0 1 -1.84596,5.51347 3.5762372,4.8064461 56.424051 0 1 -5.96589,0.0635 3.5762372,4.8064461 56.424051 0 1 1.30134,-5.5076 3.5762372,4.8064461 56.424051 0 1 0.49909,-0.37138 z"
       inkscape:export-xdpi="93"
       inkscape:export-ydpi="93" />
    <circle
       style="fill:#ffffff;stroke:#000000;stroke-width:3;stroke-linejoin:round;stroke-miterlimit:4;stroke-dasharray:none;stroke-dashoffset:8.5;paint-order:fill markers stroke"
       id="path859"
       sodipodi:type="arc"
       sodipodi:cx="302.56995"
       sodipodi:cy="318.25595"
       sodipodi:rx="18.331844"
       sodipodi:ry="7.1815472"
       sodipodi:start="0"
       sodipodi:end="6.100589"
       sodipodi:open="true"
       sodipodi:arc-type="chord"
       d="m 320.90179,318.25595 a 18.331844,7.1815472 0 0 1 -17.4953,7.17407 18.331844,7.1815472 0 0 1 -19.09204,-6.51932 18.331844,7.1815472 0 0 1 15.75284,-7.76906 18.331844,7.1815472 0 0 1 20.52974,5.81026 z"
       inkscape:export-xdpi="93"
       inkscape:export-ydpi="93" />
    <path
       style="fill:#ffffff;stroke:#000000;stroke-width:3;stroke-linecap:butt;stroke-linejoin:miter;stroke-opacity:1;stroke-miterlimit:4;stroke-dasharray:none"
       d="m 283.8601,318.25594 c 7.13485,15.20512 29.67805,16.93735 37.13617,-0.0945 z"
       id="path883"
       sodipodi:nodetypes="ccc"
       inkscape:export-xdpi="93"
       inkscape:export-ydpi="93" />
    <circle
       style="fill:#b3b3b3;stroke:#000000;stroke-width:2.96815;stroke-linejoin:round;stroke-miterlimit:4;stroke-dasharray:none;stroke-dashoffset:8.5;paint-order:fill markers stroke"
       id="path859-7"
       sodipodi:type="arc"
       sodipodi:cx="302.38071"
       sodipodi:cy="317.54718"
       sodipodi:rx="19.859816"
       sodipodi:ry="6.4889765"
       sodipodi:start="0"
       sodipodi:end="6.100589"
       sodipodi:open="true"
       sodipodi:arc-type="chord"
       d="m 322.24052,317.54718 a 19.859816,6.4889765 0 0 1 -18.95355,6.48222 19.859816,6.4889765 0 0 1 -20.68337,-5.89061 19.859816,6.4889765 0 0 1 17.06585,-7.01983 19.859816,6.4889765 0 0 1 22.24091,5.24993 z"
       inkscape:export-xdpi="93"
       inkscape:export-ydpi="93" />
    <rect
       style="fill:#ffffff;stroke:#000000;stroke-width:3;stroke-linejoin:round;stroke-miterlimit:4;stroke-dasharray:none;stroke-dashoffset:32.126;paint-order:fill markers stroke"
       id="rect885"
       width="8.6862593"
       height="32.60688"
       x="298.54004"
       y="290.52194"
       inkscape:export-xdpi="93"
       inkscape:export-ydpi="93" />
    <rect
       style="fill:#ffffff;stroke:#000000;stroke-width:3;stroke-linejoin:round;stroke-miterlimit:4;stroke-dasharray:none;stroke-dashoffset:32.126;paint-order:fill markers stroke"
       id="rect894"
       width="0.26726952"
       height="6.4144688"
       x="302.68271"
       y="283.7066"
       inkscape:export-xdpi="93"
       inkscape:export-ydpi="93" />
    <path
       id="path896-8"
       style="fill:#ffffff;stroke:#000000;stroke-width:2.82096;stroke-linejoin:round;stroke-miterlimit:4;stroke-dasharray:none;stroke-dashoffset:32.126;paint-order:fill markers stroke"
       d="m 442.98342,328.42462 a 4.2214592,7.9447775 0 0 0 -0.56997,0.0744 4.2214592,7.9447775 0 0 0 -0.89559,0.42439 h -61.34643 v 14.81235 h 61.23714 a 4.2214592,7.9447775 0 0 0 1.77391,0.57019 4.2214592,7.9447775 0 0 0 4.02896,-7.93627 l -0.0703,-1.44291 a 4.2214592,7.9447775 0 0 0 -4.15772,-6.50219 z"
       inkscape:export-xdpi="93"
       inkscape:export-ydpi="93" />
    <circle
       style="fill:#b3b3b3;stroke:#000000;stroke-width:2.82096;stroke-linejoin:round;stroke-miterlimit:4;stroke-dasharray:none;stroke-dashoffset:32.126;paint-order:fill markers stroke"
       id="path896"
       sodipodi:type="arc"
       sodipodi:cx="379.70245"
       sodipodi:cy="336.32956"
       sodipodi:rx="4.2214594"
       sodipodi:ry="7.9447775"
       sodipodi:start="0"
       sodipodi:end="6.100589"
       sodipodi:open="true"
       sodipodi:arc-type="chord"
       d="m 383.92391,336.32956 a 4.2214594,7.9447775 0 0 1 -4.02882,7.9365 4.2214594,7.9447775 0 0 1 -4.39651,-7.21216 4.2214594,7.9447775 0 0 1 3.62756,-8.59473 4.2214594,7.9447775 0 0 1 4.72759,6.42775 z"
       inkscape:export-xdpi="93"
       inkscape:export-ydpi="93" />
    <path
       id="path896-8-8"
       style="fill:#ffffff;stroke:#000000;stroke-width:2.82096;stroke-linejoin:round;stroke-miterlimit:4;stroke-dasharray:none;stroke-dashoffset:32.126;paint-order:fill markers stroke"
       d="m 451.18549,336.06033 a 4.2214592,7.9447774 0 0 0 -0.56998,0.0745 4.2214592,7.9447774 0 0 0 -0.89559,0.42439 h -61.34641 v 14.81235 h 61.23713 a 4.2214592,7.9447774 0 0 0 1.77391,0.5702 4.2214592,7.9447774 0 0 0 4.02895,-7.93627 l -0.0703,-1.44292 a 4.2214592,7.9447774 0 0 0 -4.15772,-6.50218 z"
       inkscape:export-xdpi="93"
       inkscape:export-ydpi="93" />
    <circle
       style="fill:#b3b3b3;stroke:#000000;stroke-width:2.82096;stroke-linejoin:round;stroke-miterlimit:4;stroke-dasharray:none;stroke-dashoffset:32.126;paint-order:fill markers stroke"
       id="path896-4"
       sodipodi:type="arc"
       sodipodi:cx="387.90454"
       sodipodi:cy="343.96524"
       sodipodi:rx="4.2214594"
       sodipodi:ry="7.9447775"
       sodipodi:start="0"
       sodipodi:end="6.100589"
       sodipodi:open="true"
       sodipodi:arc-type="chord"
       d="m 392.126,343.96524 a 4.2214594,7.9447775 0 0 1 -4.02882,7.9365 4.2214594,7.9447775 0 0 1 -4.39652,-7.21216 4.2214594,7.9447775 0 0 1 3.62757,-8.59473 4.2214594,7.9447775 0 0 1 4.72759,6.42775 z"
       inkscape:export-xdpi="93"
       inkscape:export-ydpi="93" />
    <path
       id="path946"
       style="fill:#ffffff;stroke:#000000;stroke-width:5.29166667;stroke-linejoin:round;stroke-miterlimit:4;stroke-dasharray:none;stroke-dashoffset:32.126;paint-order:fill markers stroke"
       d="m 557.06853,306.53875 a 23.434522,23.434522 0 0 0 -3.13106,0.21911 23.434522,23.434522 0 0 0 -20.13728,25.35195 23.434522,23.434522 0 0 0 13.00851,18.89911 22.562662,70.347887 0 0 0 -12.37909,58.41349 h 44.95022 l -0.24495,-8.34266 a 22.562662,70.347887 0 0 0 -11.95999,-49.93079 23.434522,23.434522 0 0 0 13.3966,-21.17598 l -0.38963,-4.25503 a 23.434522,23.434522 0 0 0 -23.11333,-19.1792 z"
       inkscape:export-xdpi="93"
       inkscape:export-ydpi="93" />
    <path
       id="path954"
       style="fill:#ffffff;stroke:#000000;stroke-width:20.00000025;stroke-linejoin:round;stroke-miterlimit:4;stroke-dasharray:none;stroke-dashoffset:32.126;paint-order:fill markers stroke"
       d="M 2311.3438 1244.5723 C 2318.1017 1294.567 2330.3961 1338.5856 2348.9375 1375.8594 A 120.71428 120.71428 0 0 0 2346.2168 1414.5762 A 120.71428 120.71428 0 0 0 2471.9375 1524.1602 A 120.71428 120.71428 0 0 0 2587.1426 1403.5723 L 2585.1367 1381.6523 A 120.71428 120.71428 0 0 0 2583.1465 1372.7734 C 2600.5103 1336.4372 2612.1237 1293.8934 2618.6211 1245.8262 C 2584.3494 1259.5619 2552.298 1273.5357 2521.3262 1296.0625 A 120.71428 120.71428 0 0 0 2449.9492 1283.9883 A 120.71428 120.71428 0 0 0 2410.8223 1296.4297 C 2410.1715 1295.947 2409.5228 1295.4496 2408.8711 1294.9746 C 2377.8273 1272.3486 2345.701 1258.3424 2311.3438 1244.5723 z "
       transform="scale(0.26458333)"
       inkscape:export-xdpi="93"
       inkscape:export-ydpi="93" />
    <path
       style="fill:#ffffff;stroke:none;stroke-width:0.264583px;stroke-linecap:butt;stroke-linejoin:miter;stroke-opacity:1"
       d="m 764.26785,386.29167 c -0.77745,-15.34154 3.92904,-31.77986 13.22916,-49.13691 8.80832,13.94506 16.1555,27.05186 17.00893,48.75893 z"
       id="path956"
       sodipodi:nodetypes="cccc" />
    <path
       sodipodi:type="star"
       style="fill:#ffffff;stroke:#000000;stroke-width:11.93008662;stroke-linejoin:round;stroke-miterlimit:4;stroke-dasharray:none;stroke-dashoffset:32.126;paint-order:fill markers stroke"
       id="path1003"
       sodipodi:sides="5"
       sodipodi:cx="338.89774"
       sodipodi:cy="496.05225"
       sodipodi:r1="117.74428"
       sodipodi:r2="55.526199"
       sodipodi:arg1="1.0054599"
       sodipodi:arg2="1.6228717"
       inkscape:flatsided="false"
       inkscape:rounded="0"
       inkscape:randomized="0"
       d="m 401.97334,595.47651 -65.96585,-43.97334 -72.17641,35.26132 21.43656,-76.32575 -55.83925,-57.7475 79.21436,-3.19858 37.66587,-70.95124 27.52061,74.34892 79.11803,13.89723 -62.20569,49.14874 z"
       inkscape:transform-center-x="0.36370706"
       inkscape:transform-center-y="4.63998"
       transform="matrix(0.36909275,0.2459936,-0.2459936,0.36909275,598.37567,222.19523)"
       inkscape:export-xdpi="93"
       inkscape:export-ydpi="93" />
    <path
       id="path896-8-8-3"
       style="fill:#ffffff;stroke:#000000;stroke-width:6.78532;stroke-linejoin:round;stroke-miterlimit:4;stroke-dasharray:none;stroke-dashoffset:32.126;paint-order:fill markers stroke"
       d="m 92.994769,488.69825 c 0.0014,0.45862 0.06127,0.91666 0.1792,1.37098 0.190971,0.73573 0.533282,1.45811 1.02079,2.15418 V 888.48964 H 129.82324 V 492.48627 c 1.02903,-1.35337 1.49683,-2.80871 1.37152,-4.26683 -0.46583,-5.42207 -8.87435,-9.69076 -19.08929,-9.69092 l -3.47069,0.16909 c -9.07337,0.8902 -15.653909,5.09803 -15.639841,10.00066 z"
       inkscape:export-xdpi="93"
       inkscape:export-ydpi="93"
       sodipodi:nodetypes="csccccscccc" />
    <circle
       style="fill:#b3b3b3;stroke:#000000;stroke-width:6.78532;stroke-linejoin:round;stroke-miterlimit:4;stroke-dasharray:none;stroke-dashoffset:32.126;paint-order:fill markers stroke"
       id="path896-4-7"
       sodipodi:type="arc"
       sodipodi:cx="-889.61761"
       sodipodi:cy="112.00864"
       sodipodi:rx="10.153971"
       sodipodi:ry="19.109751"
       sodipodi:start="0"
       sodipodi:end="6.100589"
       sodipodi:open="true"
       sodipodi:arc-type="chord"
       inkscape:export-xdpi="93"
       inkscape:export-ydpi="93"
       d="m -879.46364,112.00864 a 10.153971,19.109751 0 0 1 -9.69062,19.08984 10.153971,19.109751 0 0 1 -10.57504,-17.34758 10.153971,19.109751 0 0 1 8.72547,-20.673097 10.153971,19.109751 0 0 1 11.37138,15.460817 z"
       transform="rotate(-90)" />
  </g>
</svg>
